<svg width="512" height="512" viewBox="0 0 512 512" xmlns="http://www.w3.org/2000/svg">
    <defs>
        <linearGradient id="g" x1="0" y1="0" x2="1" y2="1">
            <stop offset="0%" stop-color="#a855ff"/>
            <stop offset="50%" stop-color="#6366f1"/>
            <stop offset="100%" stop-color="#22d3ee"/>
        </linearGradient>
    </defs>
    <rect rx="112" ry="112" width="512" height="512" fill="url(#g)"/>
    <path fill="#ffffff" d="M180 340c10 40 40 70 90 70 60 0 100-40 100-100 0-50-30-90-80-100l20-40c4-8-2-18-11-18h-40c-6 0-11 3-14 8l-32 64c-40 10-68 46-68 92 0 20 6 38 17 52zm70-40c0-18 12-32 30-32s30 14 30 32-12 32-30 32-30-14-30-32z"/>
</svg>
